<svg xmlns="http://www.w3.org/2000/svg" width="60" height="60" fill="none" viewBox="0 0 60 60"><path fill="#FF6F6F" d="M3.73715 33.7371C1.67318 31.6732 1.67318 28.3268 3.73715 26.2628L26.2629 3.73712C28.3268 1.67315 31.6732 1.67315 33.7371 3.73712L56.2629 26.2628C58.3268 28.3268 58.3268 31.6732 56.2629 33.7371L33.7371 56.2628C31.6732 58.3268 28.3268 58.3268 26.2629 56.2628L3.73715 33.7371Z"/><path fill="#fff" d="M27.5027 34.0756C26.8713 34.0756 26.3534 33.977 25.9489 33.7797C25.5444 33.5725 25.2435 33.3012 25.0462 32.9658C24.8489 32.6303 24.7502 32.2604 24.7502 31.8559C24.7502 31.1752 25.0166 30.6227 25.5494 30.1985C26.0821 29.7742 26.8812 29.5621 27.9467 29.5621H29.8113V29.3846C29.8113 28.8814 29.6682 28.5115 29.3821 28.2747C29.096 28.0379 28.7409 27.9195 28.3166 27.9195C27.9319 27.9195 27.5965 28.0132 27.3104 28.2007C27.0243 28.3783 26.8467 28.6446 26.7776 28.9998H24.9278C24.9772 28.4671 25.1547 28.0034 25.4606 27.6088C25.7763 27.2141 26.1808 26.9132 26.674 26.7061C27.1673 26.489 27.7198 26.3805 28.3314 26.3805C29.3772 26.3805 30.201 26.6419 30.8028 27.1648C31.4046 27.6877 31.7055 28.4276 31.7055 29.3846V33.8981H30.0924L29.9149 32.7142C29.6978 33.1088 29.392 33.4344 28.9974 33.6909C28.6126 33.9474 28.1144 34.0756 27.5027 34.0756ZM27.9319 32.5958C28.4745 32.5958 28.8938 32.4182 29.1897 32.0631C29.4956 31.7079 29.688 31.2689 29.7669 30.746H28.1539C27.6507 30.746 27.2906 30.8397 27.0736 31.0272C26.8565 31.2048 26.748 31.4267 26.748 31.6931C26.748 31.9792 26.8565 32.2012 27.0736 32.359C27.2906 32.5169 27.5767 32.5958 27.9319 32.5958Z"/><path fill="#fff" d="M34.5341 25.4186C34.1889 25.4186 33.9028 25.315 33.6758 25.1078C33.4588 24.9007 33.3503 24.6392 33.3503 24.3235C33.3503 24.0078 33.4588 23.7513 33.6758 23.554C33.9028 23.3468 34.1889 23.2432 34.5341 23.2432C34.8794 23.2432 35.1606 23.3468 35.3777 23.554C35.6046 23.7513 35.718 24.0078 35.718 24.3235C35.718 24.6392 35.6046 24.9007 35.3777 25.1078C35.1606 25.315 34.8794 25.4186 34.5341 25.4186ZM33.5871 33.8981V26.5581H35.4812V33.8981H33.5871Z"/></svg>